<?xml version="1.0" standalone="no"?><svg xmlns="http://www.w3.org/2000/svg" viewBox="0 0 1440 320"><path fill="#162456" fill-opacity="1" d="M0,256L34.3,250.7C68.6,245,137,235,206,234.7C274.3,235,343,245,411,213.3C480,181,549,107,617,112C685.7,117,754,203,823,218.7C891.4,235,960,181,1029,138.7C1097.1,96,1166,64,1234,48C1302.9,32,1371,32,1406,32L1440,32L1440,320L1405.7,320C1371.4,320,1303,320,1234,320C1165.7,320,1097,320,1029,320C960,320,891,320,823,320C754.3,320,686,320,617,320C548.6,320,480,320,411,320C342.9,320,274,320,206,320C137.1,320,69,320,34,320L0,320Z"></path></svg>